<svg  viewBox="0 0 32 32" fill="currentColor" xmlns="http://www.w3.org/2000/svg" id="settings">
<path fill-rule="evenodd" clip-rule="evenodd" d="M15.6865 28.8628C22.7904 28.8628 28.5492 23.1039 28.5492 16C28.5492 8.89612 22.7904 3.13727 15.6865 3.13727C8.58258 3.13727 2.82373 8.89612 2.82373 16C2.82373 23.1039 8.58258 28.8628 15.6865 28.8628ZM15.6865 18.8235C17.2459 18.8235 18.51 17.5594 18.51 16C18.51 14.4406 17.2459 13.1765 15.6865 13.1765C14.1271 13.1765 12.8629 14.4406 12.8629 16C12.8629 17.5594 14.1271 18.8235 15.6865 18.8235Z" fill="crrentColor"/>
<path fill-rule="evenodd" clip-rule="evenodd" d="M12.8625 0H19.1371V8.42595L15.9997 11.5633L12.8625 8.42608V0ZM15.9997 20.4368L12.8625 23.574V32H19.1371V23.5741L15.9997 20.4368Z" fill="crrentColor"/>
<path fill-rule="evenodd" clip-rule="evenodd" d="M2.46753 6.90466L6.90428 2.46791L12.8623 8.42596L12.8623 12.8628H8.42567L2.46753 6.90466ZM19.1368 19.1373V23.574L25.0949 29.5321L29.5317 25.0953L23.5737 19.1373L19.1368 19.1373Z" fill="crrentColor"/>
<path fill-rule="evenodd" clip-rule="evenodd" d="M0 19.1373L0 12.8628H8.42595L11.5633 16.0001L8.42608 19.1373H0ZM20.4368 16.0001L23.574 19.1373L32 19.1373V12.8628H23.5741L20.4368 16.0001Z" fill="crrentColor"/>
<path fill-rule="evenodd" clip-rule="evenodd" d="M25.095 2.46793L29.5317 6.90467L23.5737 12.8627L19.1368 12.8627L19.1368 8.42606L25.095 2.46793ZM12.8623 19.1372H8.42566L2.46755 25.0953L6.9043 29.5321L12.8623 23.5741L12.8623 19.1372Z" fill="crrentColor"/>
</svg>
